<svg width="24" height="24" viewBox="0 0 24 24" fill="none" xmlns="http://www.w3.org/2000/svg">
<path d="M8 20L16 20" stroke="#0468B4" stroke-width="1.2" stroke-linecap="round" stroke-linejoin="round"/>
<path d="M8.5 16L15.5 16" stroke="#0468B4" stroke-width="1.2" stroke-linecap="round" stroke-linejoin="round"/>
<path d="M17 23L14.7273 12H9.27273L7 23" stroke="#0468B4" stroke-width="1.2" stroke-linecap="round" stroke-linejoin="round"/>
<path d="M12 9L12 23" stroke="#0468B4" stroke-width="1.2" stroke-linecap="round" stroke-linejoin="round"/>
<path d="M14 7C14 8.1046 13.1046 9 12 9C10.8954 9 10 8.1046 10 7C10 5.89543 10.8954 5 12 5C13.1046 5 14 5.89543 14 7Z" fill="#0468B4" stroke="#0468B4" stroke-width="1.2" stroke-linecap="round" stroke-linejoin="round"/>
<path d="M16.9588 4C17.6186 4.86961 18 5.89801 18 7C18 8.102 17.6186 9.1304 16.9588 10M7.04117 4C6.38143 4.86961 6 5.89801 6 7C6 8.102 6.38143 9.1304 7.04117 10" stroke="#0468B4" stroke-width="1.2" stroke-linecap="round" stroke-linejoin="round"/>
<path d="M20.3159 2C21.3796 3.43008 22 5.14984 22 7C22 8.8502 21.3796 10.5699 20.3159 12M3.68409 2C2.62036 3.43008 2 5.14984 2 7C2 8.8502 2.62036 10.5699 3.68409 12" stroke="#0468B4" stroke-width="1.2" stroke-linecap="round" stroke-linejoin="round"/>
</svg>
