<svg width="18" height="18" viewBox="0 0 18 18" fill="none" xmlns="http://www.w3.org/2000/svg">
<path d="M8.51192 0.744717C8.77208 0.641084 9.06125 0.641084 9.32142 0.744717C10.1601 1.07871 10.3239 2.36486 11.3135 2.43646C12.0103 2.48688 12.6942 1.90597 13.3934 2.08011C13.6754 2.15035 13.919 2.33015 14.0717 2.5808C14.5393 3.34886 13.9358 4.47776 14.6986 5.11506C15.2286 5.55763 16.1043 5.50036 16.565 6.04291C16.759 6.27144 16.8543 6.56952 16.8294 6.87008C16.7557 7.76416 15.6158 8.32333 15.8663 9.28691C16.0396 9.95391 16.7711 10.4228 16.8294 11.1306C16.8543 11.4312 16.759 11.7292 16.565 11.9577C15.986 12.6394 14.734 12.4149 14.373 13.3388C14.1195 13.9873 14.445 14.8067 14.0717 15.4198C13.919 15.6705 13.6754 15.8503 13.3934 15.9206C12.5252 16.1367 11.6439 15.2041 10.8084 15.7302C10.2119 16.1057 9.99817 16.9866 9.32142 17.2559C9.06125 17.3596 8.77208 17.3596 8.51192 17.2559C7.83517 16.9866 7.62142 16.1057 7.02491 15.7302C6.19976 15.2107 5.29344 16.1331 4.43993 15.9206C4.15789 15.8503 3.91433 15.6705 3.76171 15.4198C3.29405 14.6518 3.89753 13.5228 3.13475 12.8856C2.60485 12.443 1.72912 12.5003 1.26837 11.9577C1.07434 11.7292 0.979034 11.4312 1.00388 11.1306C1.06238 10.4228 1.79367 9.95391 1.96708 9.28691C2.21507 8.33341 1.0767 7.75108 1.00388 6.87008C0.979034 6.56952 1.07434 6.27144 1.26837 6.04291C1.8473 5.36103 3.09916 5.58577 3.46032 4.66185C3.71385 4.01333 3.3884 3.19388 3.76171 2.5808C3.91433 2.33015 4.15789 2.15035 4.43993 2.08011C5.13921 1.90597 5.82298 2.48688 6.51982 2.43646C7.50942 2.36488 7.67325 1.07871 8.51192 0.744717Z" stroke="white" stroke-width="1.3" stroke-linejoin="round"/>
</svg>
