<svg width="24" height="24" viewBox="0 0 24 24" fill="none" xmlns="http://www.w3.org/2000/svg">
<path d="M15 10.0294C13.6274 8.65685 11.402 8.65685 10.0294 10.0294C8.6569 11.402 8.6569 13.6274 10.0294 15" stroke="#00244D" stroke-width="1.2" stroke-linecap="round" stroke-linejoin="round"/>
<path d="M19.1471 19.1471C15.9513 22.3429 11.0873 22.8538 7.3582 20.6797C6.4715 20.1627 6.0281 19.9043 6.001 19.3782C5.9739 18.8522 6.4723 18.4882 7.469 17.7603C9.317 16.4107 11.1364 14.7603 12.9484 12.9484C14.7603 11.1364 16.4107 9.31705 17.7603 7.46904C18.4882 6.47231 18.8522 5.97395 19.3782 6.00105C19.9043 6.02815 20.1628 6.47149 20.6797 7.35818C22.8538 11.0873 22.3429 15.9513 19.1471 19.1471Z" stroke="#00244D" stroke-width="1.2" stroke-linecap="round" stroke-linejoin="round"/>
<path d="M8.4426 2C6.7629 2.17243 5.2189 2.83962 4.0307 4.02583C2.8389 5.21579 2.1701 6.76334 2 8.4465M5.4983 9C5.6974 8.14257 6.1086 7.36144 6.7402 6.73091C7.3686 6.10356 8.1463 5.69396 9 5.49405" stroke="#00244D" stroke-width="1.2" stroke-linecap="round" stroke-linejoin="round"/>
</svg>
