<svg width="40" height="40" viewBox="0 0 40 40" fill="none" xmlns="http://www.w3.org/2000/svg">
<rect width="40" height="40" rx="12" fill="white"/>
<path d="M22.9173 20.0001C22.9173 21.6109 21.6115 22.9168 20.0007 22.9168C18.3898 22.9168 17.084 21.6109 17.084 20.0001C17.084 18.3893 18.3898 17.0834 20.0007 17.0834C21.6115 17.0834 22.9173 18.3893 22.9173 20.0001Z" stroke="#00244D" stroke-width="1.3" stroke-linecap="round" stroke-linejoin="round"/>
<path d="M27.5085 21.7464C27.9434 21.6292 28.1609 21.5705 28.2468 21.4583C28.3327 21.3463 28.3327 21.1658 28.3327 20.8051V19.1937C28.3327 18.8329 28.3327 18.6525 28.2468 18.5404C28.1608 18.4283 27.9434 18.3696 27.5085 18.2523C25.8832 17.814 24.8659 16.1148 25.2854 14.5001C25.4008 14.056 25.4584 13.834 25.4033 13.7038C25.3483 13.5735 25.1903 13.4838 24.8741 13.3043L23.4368 12.4883C23.1267 12.3122 22.9716 12.2241 22.8324 12.2429C22.6932 12.2616 22.5362 12.4183 22.222 12.7316C21.006 13.9447 18.994 13.9447 17.778 12.7315C17.4639 12.4182 17.3068 12.2615 17.1676 12.2428C17.0284 12.224 16.8733 12.3121 16.5631 12.4882L15.1259 13.3042C14.8098 13.4837 14.6517 13.5734 14.5967 13.7036C14.5416 13.8338 14.5992 14.0559 14.7146 14.5C15.1338 16.1148 14.1158 17.814 12.4902 18.2523C12.0553 18.3696 11.8378 18.4283 11.7519 18.5403C11.666 18.6525 11.666 18.8329 11.666 19.1937V20.8051C11.666 21.1658 11.666 21.3463 11.7519 21.4583C11.8378 21.5705 12.0553 21.6292 12.4902 21.7464C14.1155 22.1848 15.1327 23.884 14.7133 25.4987C14.5979 25.9428 14.5402 26.1648 14.5953 26.295C14.6504 26.4253 14.8084 26.515 15.1246 26.6944L16.5618 27.5105C16.872 27.6866 17.0271 27.7747 17.1663 27.7559C17.3056 27.7372 17.4626 27.5804 17.7766 27.2671C18.9933 26.053 21.0067 26.0529 22.2234 27.267C22.5374 27.5804 22.6944 27.7371 22.8337 27.7558C22.9728 27.7746 23.128 27.6865 23.4382 27.5104L24.8754 26.6943C25.1916 26.5149 25.3497 26.4252 25.4047 26.2949C25.4598 26.1647 25.4021 25.9427 25.2867 25.4986C24.867 23.884 25.8834 22.1848 27.5085 21.7464Z" stroke="#00244D" stroke-width="1.3" stroke-linecap="round" stroke-linejoin="round"/>
</svg>
