<svg width="16" height="16" viewBox="0 0 16 16" fill="none" xmlns="http://www.w3.org/2000/svg">
<path d="M1 12.2005C1 11.1222 1 10.583 1.24272 10.1869C1.37854 9.96525 1.56488 9.7789 1.78651 9.64309C2.18259 9.40039 2.72177 9.40039 3.80013 9.40039C4.87849 9.40039 5.41767 9.40039 5.81375 9.64309C6.03538 9.7789 6.22172 9.96525 6.35754 10.1869C6.60026 10.583 6.60026 11.1222 6.60026 12.2005C6.60026 13.2789 6.60026 13.8181 6.35754 14.2142C6.22172 14.4358 6.03538 14.6221 5.81375 14.7579C5.41767 15.0007 4.87849 15.0007 3.80013 15.0007C2.72177 15.0007 2.18259 15.0007 1.78651 14.7579C1.56488 14.6221 1.37854 14.4358 1.24272 14.2142C1 13.8181 1 13.2789 1 12.2005Z" stroke="white" stroke-width="1.3"/>
<path d="M9.40039 12.2005C9.40039 11.1222 9.40039 10.583 9.64309 10.1869C9.7789 9.96525 9.96525 9.7789 10.1869 9.64309C10.583 9.40039 11.1222 9.40039 12.2005 9.40039C13.2789 9.40039 13.8181 9.40039 14.2142 9.64309C14.4358 9.7789 14.6221 9.96525 14.7579 10.1869C15.0007 10.583 15.0007 11.1222 15.0007 12.2005C15.0007 13.2789 15.0007 13.8181 14.7579 14.2142C14.6221 14.4358 14.4358 14.6221 14.2142 14.7579C13.8181 15.0007 13.2789 15.0007 12.2005 15.0007C11.1222 15.0007 10.583 15.0007 10.1869 14.7579C9.96525 14.6221 9.7789 14.4358 9.64309 14.2142C9.40039 13.8181 9.40039 13.2789 9.40039 12.2005Z" stroke="white" stroke-width="1.3"/>
<path d="M1 3.80013C1 2.72177 1 2.18259 1.24272 1.78651C1.37854 1.56488 1.56488 1.37854 1.78651 1.24272C2.18259 1 2.72177 1 3.80013 1C4.87849 1 5.41767 1 5.81375 1.24272C6.03538 1.37854 6.22172 1.56488 6.35754 1.78651C6.60026 2.18259 6.60026 2.72177 6.60026 3.80013C6.60026 4.87849 6.60026 5.41767 6.35754 5.81375C6.22172 6.03538 6.03538 6.22172 5.81375 6.35754C5.41767 6.60026 4.87849 6.60026 3.80013 6.60026C2.72177 6.60026 2.18259 6.60026 1.78651 6.35754C1.56488 6.22172 1.37854 6.03538 1.24272 5.81375C1 5.41767 1 4.87849 1 3.80013Z" stroke="white" stroke-width="1.3"/>
<path d="M9.40039 3.80013C9.40039 2.72177 9.40039 2.18259 9.64309 1.78651C9.7789 1.56488 9.96525 1.37854 10.1869 1.24272C10.583 1 11.1222 1 12.2005 1C13.2789 1 13.8181 1 14.2142 1.24272C14.4358 1.37854 14.6221 1.56488 14.7579 1.78651C15.0007 2.18259 15.0007 2.72177 15.0007 3.80013C15.0007 4.87849 15.0007 5.41767 14.7579 5.81375C14.6221 6.03538 14.4358 6.22172 14.2142 6.35754C13.8181 6.60026 13.2789 6.60026 12.2005 6.60026C11.1222 6.60026 10.583 6.60026 10.1869 6.35754C9.96525 6.22172 9.7789 6.03538 9.64309 5.81375C9.40039 5.41767 9.40039 4.87849 9.40039 3.80013Z" stroke="white" stroke-width="1.3"/>
</svg>
